<svg width="44" height="44" viewBox="0 0 44 44" fill="none" xmlns="http://www.w3.org/2000/svg">
<rect width="44" height="44" rx="8" fill="white"/>
<path d="M22 32.0795C21.7 32.0795 21.4 32.0095 21.15 31.8695C19.28 30.8495 15.99 29.7695 13.93 29.4995L13.64 29.4595C12.33 29.2995 11.25 28.0695 11.25 26.7395V14.6595C11.25 13.8695 11.56 13.1495 12.13 12.6295C12.7 12.1095 13.44 11.8595 14.22 11.9295C16.42 12.0995 19.74 13.1995 21.62 14.3795L21.86 14.5195C21.93 14.5595 22.08 14.5595 22.14 14.5295L22.3 14.4295C24.18 13.2495 27.5 12.1295 29.71 11.9395C29.73 11.9395 29.81 11.9395 29.83 11.9395C30.56 11.8695 31.31 12.1295 31.87 12.6495C32.44 13.1695 32.75 13.8895 32.75 14.6795V26.7495C32.75 28.0895 31.67 29.3095 30.35 29.4695L30.02 29.5095C27.96 29.7795 24.66 30.8695 22.83 31.8795C22.59 32.0195 22.3 32.0795 22 32.0795ZM13.98 13.4195C13.66 13.4195 13.37 13.5295 13.14 13.7395C12.89 13.9695 12.75 14.2995 12.75 14.6595V26.7395C12.75 27.3295 13.26 27.8995 13.83 27.9795L14.13 28.0195C16.38 28.3195 19.83 29.4495 21.83 30.5395C21.92 30.5795 22.05 30.5895 22.1 30.5695C24.1 29.4595 27.57 28.3195 29.83 28.0195L30.17 27.9795C30.74 27.9095 31.25 27.3295 31.25 26.7395V14.6695C31.25 14.2995 31.11 13.9795 30.86 13.7395C30.6 13.5095 30.27 13.3995 29.9 13.4195C29.88 13.4195 29.8 13.4195 29.78 13.4195C27.87 13.5895 24.79 14.6195 23.11 15.6695L22.95 15.7795C22.4 16.1195 21.62 16.1195 21.09 15.7895L20.85 15.6495C19.14 14.5995 16.06 13.5795 14.1 13.4195C14.06 13.4195 14.02 13.4195 13.98 13.4195Z" fill="#1A1A1A"/>
<path d="M22 31.2402C21.59 31.2402 21.25 30.9002 21.25 30.4902V15.4902C21.25 15.0802 21.59 14.7402 22 14.7402C22.41 14.7402 22.75 15.0802 22.75 15.4902V30.4902C22.75 30.9102 22.41 31.2402 22 31.2402Z" fill="#1A1A1A"/>
<path d="M17.75 19.2402H15.5C15.09 19.2402 14.75 18.9002 14.75 18.4902C14.75 18.0802 15.09 17.7402 15.5 17.7402H17.75C18.16 17.7402 18.5 18.0802 18.5 18.4902C18.5 18.9002 18.16 19.2402 17.75 19.2402Z" fill="#1A1A1A"/>
<path d="M18.5 22.2402H15.5C15.09 22.2402 14.75 21.9002 14.75 21.4902C14.75 21.0802 15.09 20.7402 15.5 20.7402H18.5C18.91 20.7402 19.25 21.0802 19.25 21.4902C19.25 21.9002 18.91 22.2402 18.5 22.2402Z" fill="#1A1A1A"/>
</svg>
