<svg width="25" height="24" viewBox="0 0 25 24" fill="none" xmlns="http://www.w3.org/2000/svg">
<path d="M15.0309 9.46992L9.9709 14.5299C9.3209 13.8799 8.9209 12.9899 8.9209 11.9999C8.9209 10.0199 10.5209 8.41992 12.5009 8.41992C13.4909 8.41992 14.3809 8.81992 15.0309 9.46992Z" stroke="#6C7084" stroke-width="1.5" stroke-linecap="round" stroke-linejoin="round"/>
<path d="M18.3189 5.77047C16.5689 4.45047 14.5689 3.73047 12.4989 3.73047C8.96887 3.73047 5.67887 5.81047 3.38887 9.41047C2.48887 10.8205 2.48887 13.1905 3.38887 14.6005C4.17887 15.8405 5.09887 16.9105 6.09887 17.7705" stroke="#6C7084" stroke-width="1.5" stroke-linecap="round" stroke-linejoin="round"/>
<path d="M8.9209 19.5297C10.0609 20.0097 11.2709 20.2697 12.5009 20.2697C16.0309 20.2697 19.3209 18.1897 21.6109 14.5897C22.5109 13.1797 22.5109 10.8097 21.6109 9.39969C21.2809 8.87969 20.9209 8.38969 20.5509 7.92969" stroke="#6C7084" stroke-width="1.5" stroke-linecap="round" stroke-linejoin="round"/>
<path d="M16.0104 12.7002C15.7504 14.1102 14.6004 15.2602 13.1904 15.5202" stroke="#6C7084" stroke-width="1.5" stroke-linecap="round" stroke-linejoin="round"/>
<path d="M9.97098 14.5303L2.50098 22.0003" stroke="#6C7084" stroke-width="1.5" stroke-linecap="round" stroke-linejoin="round"/>
<path d="M22.5012 2L15.0312 9.47" stroke="#6C7084" stroke-width="1.5" stroke-linecap="round" stroke-linejoin="round"/>
</svg>
