<svg width="44" height="44" viewBox="0 0 44 44" fill="none" xmlns="http://www.w3.org/2000/svg">
<rect width="44" height="44" rx="8" fill="#F4D2D7"/>
<path d="M22 32.08C21.7 32.08 21.4 32.01 21.15 31.87C19.28 30.85 15.99 29.77 13.93 29.5L13.64 29.46C12.33 29.3 11.25 28.07 11.25 26.74V14.66C11.25 13.87 11.56 13.15 12.13 12.63C12.7 12.11 13.44 11.86 14.22 11.93C16.42 12.1 19.74 13.2 21.62 14.38L21.86 14.52C21.93 14.56 22.08 14.56 22.14 14.53L22.3 14.43C24.18 13.25 27.5 12.13 29.71 11.94C29.73 11.94 29.81 11.94 29.83 11.94C30.56 11.87 31.31 12.13 31.87 12.65C32.44 13.17 32.75 13.89 32.75 14.68V26.75C32.75 28.09 31.67 29.31 30.35 29.47L30.02 29.51C27.96 29.78 24.66 30.87 22.83 31.88C22.59 32.02 22.3 32.08 22 32.08ZM13.98 13.42C13.66 13.42 13.37 13.53 13.14 13.74C12.89 13.97 12.75 14.3 12.75 14.66V26.74C12.75 27.33 13.26 27.9 13.83 27.98L14.13 28.02C16.38 28.32 19.83 29.45 21.83 30.54C21.92 30.58 22.05 30.59 22.1 30.57C24.1 29.46 27.57 28.32 29.83 28.02L30.17 27.98C30.74 27.91 31.25 27.33 31.25 26.74V14.67C31.25 14.3 31.11 13.98 30.86 13.74C30.6 13.51 30.27 13.4 29.9 13.42C29.88 13.42 29.8 13.42 29.78 13.42C27.87 13.59 24.79 14.62 23.11 15.67L22.95 15.78C22.4 16.12 21.62 16.12 21.09 15.79L20.85 15.65C19.14 14.6 16.06 13.58 14.1 13.42C14.06 13.42 14.02 13.42 13.98 13.42Z" fill="#232946"/>
<path d="M22 31.2402C21.59 31.2402 21.25 30.9002 21.25 30.4902V15.4902C21.25 15.0802 21.59 14.7402 22 14.7402C22.41 14.7402 22.75 15.0802 22.75 15.4902V30.4902C22.75 30.9102 22.41 31.2402 22 31.2402Z" fill="#232946"/>
<path d="M17.75 19.2402H15.5C15.09 19.2402 14.75 18.9002 14.75 18.4902C14.75 18.0802 15.09 17.7402 15.5 17.7402H17.75C18.16 17.7402 18.5 18.0802 18.5 18.4902C18.5 18.9002 18.16 19.2402 17.75 19.2402Z" fill="#232946"/>
<path d="M18.5 22.2402H15.5C15.09 22.2402 14.75 21.9002 14.75 21.4902C14.75 21.0802 15.09 20.7402 15.5 20.7402H18.5C18.91 20.7402 19.25 21.0802 19.25 21.4902C19.25 21.9002 18.91 22.2402 18.5 22.2402Z" fill="#232946"/>
</svg>
