<svg width="56" height="56" viewBox="0 0 56 56" fill="none" xmlns="http://www.w3.org/2000/svg">
<rect width="56" height="56" rx="8" fill="#EEBBC3"/>
<path d="M26.9824 26.9062C26.9824 28.2188 26.8835 29.5208 26.6855 30.8125C26.498 32.1042 26.1647 33.3229 25.6855 34.4688C25.2064 35.6042 24.5345 36.6146 23.6699 37.5C22.8053 38.375 21.7064 39.0625 20.373 39.5625C19.0397 40.0625 17.4251 40.3125 15.5293 40.3125C15.0814 40.3125 14.5553 40.2917 13.9512 40.25C13.347 40.2188 12.847 40.1667 12.4512 40.0938V36.2188C12.8678 36.3229 13.3105 36.4062 13.7793 36.4688C14.248 36.5208 14.722 36.5469 15.2012 36.5469C17.1074 36.5469 18.5762 36.2448 19.6074 35.6406C20.6491 35.0365 21.3783 34.1979 21.7949 33.125C22.222 32.0521 22.4668 30.8125 22.5293 29.4062H22.3418C22.0397 29.9062 21.6803 30.3594 21.2637 30.7656C20.8574 31.1615 20.3366 31.4792 19.7012 31.7188C19.0658 31.9479 18.2585 32.0625 17.2793 32.0625C15.9772 32.0625 14.8418 31.7812 13.873 31.2188C12.9147 30.6458 12.1699 29.8229 11.6387 28.75C11.1178 27.6667 10.8574 26.3594 10.8574 24.8281C10.8574 23.1719 11.1699 21.7552 11.7949 20.5781C12.4303 19.3906 13.3314 18.4792 14.498 17.8438C15.6647 17.2083 17.0397 16.8906 18.623 16.8906C19.7897 16.8906 20.8783 17.0938 21.8887 17.5C22.8991 17.8958 23.7845 18.5052 24.5449 19.3281C25.3158 20.151 25.9147 21.1927 26.3418 22.4531C26.7689 23.7135 26.9824 25.1979 26.9824 26.9062ZM18.7168 20.7656C17.7793 20.7656 17.0137 21.0885 16.4199 21.7344C15.8262 22.3802 15.5293 23.3906 15.5293 24.7656C15.5293 25.8698 15.7845 26.7448 16.2949 27.3906C16.8053 28.0365 17.5814 28.3594 18.623 28.3594C19.3418 28.3594 19.9668 28.2031 20.498 27.8906C21.0293 27.5677 21.4408 27.1667 21.7324 26.6875C22.0345 26.1979 22.1855 25.6979 22.1855 25.1875C22.1855 24.6562 22.1126 24.1302 21.9668 23.6094C21.821 23.0885 21.6022 22.6146 21.3105 22.1875C21.0189 21.7604 20.6543 21.4167 20.2168 21.1562C19.7897 20.8958 19.2897 20.7656 18.7168 20.7656ZM45.2949 26.9062C45.2949 28.2188 45.196 29.5208 44.998 30.8125C44.8105 32.1042 44.4772 33.3229 43.998 34.4688C43.5189 35.6042 42.847 36.6146 41.9824 37.5C41.1178 38.375 40.0189 39.0625 38.6855 39.5625C37.3522 40.0625 35.7376 40.3125 33.8418 40.3125C33.3939 40.3125 32.8678 40.2917 32.2637 40.25C31.6595 40.2188 31.1595 40.1667 30.7637 40.0938V36.2188C31.1803 36.3229 31.623 36.4062 32.0918 36.4688C32.5605 36.5208 33.0345 36.5469 33.5137 36.5469C35.4199 36.5469 36.8887 36.2448 37.9199 35.6406C38.9616 35.0365 39.6908 34.1979 40.1074 33.125C40.5345 32.0521 40.7793 30.8125 40.8418 29.4062H40.6543C40.3522 29.9062 39.9928 30.3594 39.5762 30.7656C39.1699 31.1615 38.6491 31.4792 38.0137 31.7188C37.3783 31.9479 36.571 32.0625 35.5918 32.0625C34.2897 32.0625 33.1543 31.7812 32.1855 31.2188C31.2272 30.6458 30.4824 29.8229 29.9512 28.75C29.4303 27.6667 29.1699 26.3594 29.1699 24.8281C29.1699 23.1719 29.4824 21.7552 30.1074 20.5781C30.7428 19.3906 31.6439 18.4792 32.8105 17.8438C33.9772 17.2083 35.3522 16.8906 36.9355 16.8906C38.1022 16.8906 39.1908 17.0938 40.2012 17.5C41.2116 17.8958 42.097 18.5052 42.8574 19.3281C43.6283 20.151 44.2272 21.1927 44.6543 22.4531C45.0814 23.7135 45.2949 25.1979 45.2949 26.9062ZM37.0293 20.7656C36.0918 20.7656 35.3262 21.0885 34.7324 21.7344C34.1387 22.3802 33.8418 23.3906 33.8418 24.7656C33.8418 25.8698 34.097 26.7448 34.6074 27.3906C35.1178 28.0365 35.8939 28.3594 36.9355 28.3594C37.6543 28.3594 38.2793 28.2031 38.8105 27.8906C39.3418 27.5677 39.7533 27.1667 40.0449 26.6875C40.347 26.1979 40.498 25.6979 40.498 25.1875C40.498 24.6562 40.4251 24.1302 40.2793 23.6094C40.1335 23.0885 39.9147 22.6146 39.623 22.1875C39.3314 21.7604 38.9668 21.4167 38.5293 21.1562C38.1022 20.8958 37.6022 20.7656 37.0293 20.7656Z" fill="#232946"/>
</svg>
